<mxfile host="Electron" agent="Mozilla/5.0 (Windows NT 10.0; Win64; x64) AppleWebKit/537.36 (KHTML, like Gecko) draw.io/25.0.2 Chrome/128.0.6613.186 Electron/32.2.5 Safari/537.36" version="25.0.2">
  <diagram id="C5RBs43oDa-KdzZeNtuy" name="Page-1">
    <mxGraphModel dx="864" dy="787" grid="1" gridSize="10" guides="1" tooltips="1" connect="1" arrows="1" fold="1" page="1" pageScale="1" pageWidth="827" pageHeight="1169" math="0" shadow="0">
      <root>
        <mxCell id="WIyWlLk6GJQsqaUBKTNV-0" />
        <mxCell id="WIyWlLk6GJQsqaUBKTNV-1" parent="WIyWlLk6GJQsqaUBKTNV-0" />
        <mxCell id="ffji-0lp2qDWtZg9SG-Y-5" value="" style="edgeStyle=orthogonalEdgeStyle;rounded=0;orthogonalLoop=1;jettySize=auto;html=1;" edge="1" parent="WIyWlLk6GJQsqaUBKTNV-1" source="ffji-0lp2qDWtZg9SG-Y-0" target="ffji-0lp2qDWtZg9SG-Y-4">
          <mxGeometry relative="1" as="geometry" />
        </mxCell>
        <mxCell id="ffji-0lp2qDWtZg9SG-Y-0" value="Start puzzle 3&amp;nbsp;" style="ellipse;whiteSpace=wrap;html=1;" vertex="1" parent="WIyWlLk6GJQsqaUBKTNV-1">
          <mxGeometry x="200" y="50" width="120" height="80" as="geometry" />
        </mxCell>
        <mxCell id="ffji-0lp2qDWtZg9SG-Y-32" value="" style="edgeStyle=orthogonalEdgeStyle;rounded=0;orthogonalLoop=1;jettySize=auto;html=1;" edge="1" parent="WIyWlLk6GJQsqaUBKTNV-1" source="ffji-0lp2qDWtZg9SG-Y-2" target="ffji-0lp2qDWtZg9SG-Y-15">
          <mxGeometry relative="1" as="geometry" />
        </mxCell>
        <mxCell id="ffji-0lp2qDWtZg9SG-Y-2" value="Intialize&amp;nbsp;&lt;br&gt;&lt;div&gt;&lt;br&gt;&lt;/div&gt;&lt;div&gt;score=0&lt;/div&gt;&lt;div&gt;ItemPlaced=0&lt;/div&gt;&lt;div&gt;&lt;br&gt;&lt;/div&gt;" style="whiteSpace=wrap;html=1;" vertex="1" parent="WIyWlLk6GJQsqaUBKTNV-1">
          <mxGeometry x="165" y="470" width="190" height="70" as="geometry" />
        </mxCell>
        <mxCell id="ffji-0lp2qDWtZg9SG-Y-8" value="" style="edgeStyle=orthogonalEdgeStyle;rounded=0;orthogonalLoop=1;jettySize=auto;html=1;" edge="1" parent="WIyWlLk6GJQsqaUBKTNV-1" source="ffji-0lp2qDWtZg9SG-Y-4" target="ffji-0lp2qDWtZg9SG-Y-7">
          <mxGeometry relative="1" as="geometry" />
        </mxCell>
        <mxCell id="ffji-0lp2qDWtZg9SG-Y-4" value="Score=total player point" style="whiteSpace=wrap;html=1;" vertex="1" parent="WIyWlLk6GJQsqaUBKTNV-1">
          <mxGeometry x="200" y="220" width="120" height="60" as="geometry" />
        </mxCell>
        <mxCell id="ffji-0lp2qDWtZg9SG-Y-9" value="" style="edgeStyle=orthogonalEdgeStyle;rounded=0;orthogonalLoop=1;jettySize=auto;html=1;" edge="1" parent="WIyWlLk6GJQsqaUBKTNV-1" source="ffji-0lp2qDWtZg9SG-Y-7" target="ffji-0lp2qDWtZg9SG-Y-2">
          <mxGeometry relative="1" as="geometry" />
        </mxCell>
        <mxCell id="ffji-0lp2qDWtZg9SG-Y-7" value="Itemplaced=player must keep&amp;nbsp; the doll,candle,key and book properly in a specific place in the room&amp;nbsp;&amp;nbsp;" style="whiteSpace=wrap;html=1;" vertex="1" parent="WIyWlLk6GJQsqaUBKTNV-1">
          <mxGeometry x="180" y="350" width="160" height="80" as="geometry" />
        </mxCell>
        <mxCell id="ffji-0lp2qDWtZg9SG-Y-14" value="No" style="text;html=1;align=center;verticalAlign=middle;whiteSpace=wrap;rounded=0;" vertex="1" parent="WIyWlLk6GJQsqaUBKTNV-1">
          <mxGeometry x="355" y="780" width="60" height="30" as="geometry" />
        </mxCell>
        <mxCell id="ffji-0lp2qDWtZg9SG-Y-37" value="" style="edgeStyle=orthogonalEdgeStyle;rounded=0;orthogonalLoop=1;jettySize=auto;html=1;" edge="1" parent="WIyWlLk6GJQsqaUBKTNV-1" source="ffji-0lp2qDWtZg9SG-Y-15" target="ffji-0lp2qDWtZg9SG-Y-36">
          <mxGeometry relative="1" as="geometry" />
        </mxCell>
        <mxCell id="ffji-0lp2qDWtZg9SG-Y-45" value="" style="edgeStyle=orthogonalEdgeStyle;rounded=0;orthogonalLoop=1;jettySize=auto;html=1;" edge="1" parent="WIyWlLk6GJQsqaUBKTNV-1" source="ffji-0lp2qDWtZg9SG-Y-15" target="ffji-0lp2qDWtZg9SG-Y-44">
          <mxGeometry relative="1" as="geometry" />
        </mxCell>
        <mxCell id="ffji-0lp2qDWtZg9SG-Y-15" value="If ItemPlaced &amp;lt; 4" style="rhombus;whiteSpace=wrap;html=1;" vertex="1" parent="WIyWlLk6GJQsqaUBKTNV-1">
          <mxGeometry x="190" y="580" width="140" height="140" as="geometry" />
        </mxCell>
        <mxCell id="ffji-0lp2qDWtZg9SG-Y-25" value="No" style="text;html=1;align=center;verticalAlign=middle;whiteSpace=wrap;rounded=0;" vertex="1" parent="WIyWlLk6GJQsqaUBKTNV-1">
          <mxGeometry x="400" y="610" width="60" height="30" as="geometry" />
        </mxCell>
        <mxCell id="ffji-0lp2qDWtZg9SG-Y-31" value="" style="edgeStyle=orthogonalEdgeStyle;rounded=0;orthogonalLoop=1;jettySize=auto;html=1;" edge="1" parent="WIyWlLk6GJQsqaUBKTNV-1" source="ffji-0lp2qDWtZg9SG-Y-49" target="ffji-0lp2qDWtZg9SG-Y-30">
          <mxGeometry relative="1" as="geometry">
            <mxPoint x="260" y="1300" as="sourcePoint" />
          </mxGeometry>
        </mxCell>
        <mxCell id="ffji-0lp2qDWtZg9SG-Y-52" value="" style="edgeStyle=orthogonalEdgeStyle;rounded=0;orthogonalLoop=1;jettySize=auto;html=1;" edge="1" parent="WIyWlLk6GJQsqaUBKTNV-1" source="ffji-0lp2qDWtZg9SG-Y-30" target="ffji-0lp2qDWtZg9SG-Y-51">
          <mxGeometry relative="1" as="geometry" />
        </mxCell>
        <mxCell id="ffji-0lp2qDWtZg9SG-Y-55" value="" style="edgeStyle=orthogonalEdgeStyle;rounded=0;orthogonalLoop=1;jettySize=auto;html=1;" edge="1" parent="WIyWlLk6GJQsqaUBKTNV-1" source="ffji-0lp2qDWtZg9SG-Y-30" target="ffji-0lp2qDWtZg9SG-Y-54">
          <mxGeometry relative="1" as="geometry" />
        </mxCell>
        <mxCell id="ffji-0lp2qDWtZg9SG-Y-30" value="If placement is correct&amp;nbsp;" style="rhombus;whiteSpace=wrap;html=1;" vertex="1" parent="WIyWlLk6GJQsqaUBKTNV-1">
          <mxGeometry x="205" y="1050" width="110" height="90" as="geometry" />
        </mxCell>
        <mxCell id="ffji-0lp2qDWtZg9SG-Y-47" value="" style="edgeStyle=orthogonalEdgeStyle;rounded=0;orthogonalLoop=1;jettySize=auto;html=1;" edge="1" parent="WIyWlLk6GJQsqaUBKTNV-1" source="ffji-0lp2qDWtZg9SG-Y-36">
          <mxGeometry relative="1" as="geometry">
            <mxPoint x="601" y="520" as="targetPoint" />
          </mxGeometry>
        </mxCell>
        <mxCell id="ffji-0lp2qDWtZg9SG-Y-50" value="" style="edgeStyle=orthogonalEdgeStyle;rounded=0;orthogonalLoop=1;jettySize=auto;html=1;" edge="1" parent="WIyWlLk6GJQsqaUBKTNV-1" source="ffji-0lp2qDWtZg9SG-Y-36" target="ffji-0lp2qDWtZg9SG-Y-49">
          <mxGeometry relative="1" as="geometry" />
        </mxCell>
        <mxCell id="ffji-0lp2qDWtZg9SG-Y-36" value="if score &amp;gt; 0" style="rhombus;whiteSpace=wrap;html=1;" vertex="1" parent="WIyWlLk6GJQsqaUBKTNV-1">
          <mxGeometry x="220" y="770" width="80" height="80" as="geometry" />
        </mxCell>
        <mxCell id="ffji-0lp2qDWtZg9SG-Y-40" value="Yes" style="text;html=1;align=center;verticalAlign=middle;whiteSpace=wrap;rounded=0;" vertex="1" parent="WIyWlLk6GJQsqaUBKTNV-1">
          <mxGeometry x="205" y="860" width="60" height="30" as="geometry" />
        </mxCell>
        <mxCell id="ffji-0lp2qDWtZg9SG-Y-44" value="End puzzle" style="ellipse;whiteSpace=wrap;html=1;" vertex="1" parent="WIyWlLk6GJQsqaUBKTNV-1">
          <mxGeometry x="470" y="610" width="60" height="80" as="geometry" />
        </mxCell>
        <mxCell id="ffji-0lp2qDWtZg9SG-Y-48" value="" style="endArrow=classic;html=1;rounded=0;" edge="1" parent="WIyWlLk6GJQsqaUBKTNV-1">
          <mxGeometry width="50" height="50" relative="1" as="geometry">
            <mxPoint x="600" y="520" as="sourcePoint" />
            <mxPoint x="360" y="520" as="targetPoint" />
          </mxGeometry>
        </mxCell>
        <mxCell id="ffji-0lp2qDWtZg9SG-Y-49" value="Player plays an item&amp;nbsp;" style="shape=parallelogram;perimeter=parallelogramPerimeter;whiteSpace=wrap;html=1;fixedSize=1;" vertex="1" parent="WIyWlLk6GJQsqaUBKTNV-1">
          <mxGeometry x="185" y="930" width="150" height="70" as="geometry" />
        </mxCell>
        <mxCell id="ffji-0lp2qDWtZg9SG-Y-51" value="score=score +10&amp;nbsp;&lt;div&gt;ItemPlaced=ItemPlaced +1&lt;/div&gt;" style="whiteSpace=wrap;html=1;" vertex="1" parent="WIyWlLk6GJQsqaUBKTNV-1">
          <mxGeometry x="185" y="1180" width="150" height="65" as="geometry" />
        </mxCell>
        <mxCell id="ffji-0lp2qDWtZg9SG-Y-53" value="Yes" style="text;html=1;align=center;verticalAlign=middle;whiteSpace=wrap;rounded=0;" vertex="1" parent="WIyWlLk6GJQsqaUBKTNV-1">
          <mxGeometry x="190" y="1140" width="60" height="30" as="geometry" />
        </mxCell>
        <mxCell id="ffji-0lp2qDWtZg9SG-Y-54" value="Score=score -5&lt;div&gt;&lt;br&gt;&lt;/div&gt;" style="whiteSpace=wrap;html=1;" vertex="1" parent="WIyWlLk6GJQsqaUBKTNV-1">
          <mxGeometry x="460" y="1190" width="120" height="60" as="geometry" />
        </mxCell>
        <mxCell id="ffji-0lp2qDWtZg9SG-Y-56" value="No" style="text;html=1;align=center;verticalAlign=middle;whiteSpace=wrap;rounded=0;" vertex="1" parent="WIyWlLk6GJQsqaUBKTNV-1">
          <mxGeometry x="380" y="1070" width="60" height="30" as="geometry" />
        </mxCell>
        <mxCell id="ffji-0lp2qDWtZg9SG-Y-57" value="" style="endArrow=none;html=1;rounded=0;" edge="1" parent="WIyWlLk6GJQsqaUBKTNV-1">
          <mxGeometry width="50" height="50" relative="1" as="geometry">
            <mxPoint x="260" y="1320" as="sourcePoint" />
            <mxPoint x="260" y="1245" as="targetPoint" />
          </mxGeometry>
        </mxCell>
        <mxCell id="ffji-0lp2qDWtZg9SG-Y-58" value="" style="endArrow=none;html=1;rounded=0;entryX=0.5;entryY=1;entryDx=0;entryDy=0;" edge="1" parent="WIyWlLk6GJQsqaUBKTNV-1" target="ffji-0lp2qDWtZg9SG-Y-54">
          <mxGeometry width="50" height="50" relative="1" as="geometry">
            <mxPoint x="520" y="1320" as="sourcePoint" />
            <mxPoint x="540" y="1740" as="targetPoint" />
          </mxGeometry>
        </mxCell>
        <mxCell id="ffji-0lp2qDWtZg9SG-Y-59" value="" style="endArrow=none;html=1;rounded=0;" edge="1" parent="WIyWlLk6GJQsqaUBKTNV-1">
          <mxGeometry width="50" height="50" relative="1" as="geometry">
            <mxPoint x="60" y="1320" as="sourcePoint" />
            <mxPoint x="520" y="1320" as="targetPoint" />
          </mxGeometry>
        </mxCell>
        <mxCell id="ffji-0lp2qDWtZg9SG-Y-60" value="" style="endArrow=none;html=1;rounded=0;" edge="1" parent="WIyWlLk6GJQsqaUBKTNV-1">
          <mxGeometry width="50" height="50" relative="1" as="geometry">
            <mxPoint x="100" y="1860" as="sourcePoint" />
            <mxPoint x="260" y="1860" as="targetPoint" />
          </mxGeometry>
        </mxCell>
        <mxCell id="ffji-0lp2qDWtZg9SG-Y-61" value="" style="endArrow=none;html=1;rounded=0;" edge="1" parent="WIyWlLk6GJQsqaUBKTNV-1">
          <mxGeometry width="50" height="50" relative="1" as="geometry">
            <mxPoint x="60" y="1324" as="sourcePoint" />
            <mxPoint x="50" y="640" as="targetPoint" />
          </mxGeometry>
        </mxCell>
        <mxCell id="ffji-0lp2qDWtZg9SG-Y-68" value="" style="endArrow=classic;html=1;rounded=0;" edge="1" parent="WIyWlLk6GJQsqaUBKTNV-1">
          <mxGeometry width="50" height="50" relative="1" as="geometry">
            <mxPoint x="50" y="640" as="sourcePoint" />
            <mxPoint x="190" y="640" as="targetPoint" />
          </mxGeometry>
        </mxCell>
        <mxCell id="ffji-0lp2qDWtZg9SG-Y-69" value="Yes" style="text;html=1;align=center;verticalAlign=middle;whiteSpace=wrap;rounded=0;" vertex="1" parent="WIyWlLk6GJQsqaUBKTNV-1">
          <mxGeometry x="205" y="720" width="60" height="30" as="geometry" />
        </mxCell>
      </root>
    </mxGraphModel>
  </diagram>
</mxfile>
